Coordinates
version=1
nRows=6
nColumns=36
inDegrees=yes

Units are S.I. units (second, meters, Newtons, ...)
If the header above contains a line with 'inDegrees', this indicates whether rotational values are in degrees (yes) or radians (no).

endheader
time	pelvis_tilt	pelvis_list	pelvis_rotation	pelvis_tx	pelvis_ty	pelvis_tz	hip_flexion_r	hip_adduction_r	hip_rotation_r	knee_angle_r	knee_angle_r_beta	ankle_angle_r	subtalar_angle_r	mtp_angle_r	hip_flexion_l	hip_adduction_l	hip_rotation_l	knee_angle_l	knee_angle_l_beta	ankle_angle_l	subtalar_angle_l	mtp_angle_l	lumbar_extension	lumbar_bending	lumbar_rotation	arm_flex_r	arm_add_r	arm_rot_r	elbow_flex_r	pro_sup_r	arm_flex_l	arm_add_l	arm_rot_l	elbow_flex_l	pro_sup_l
     44.66666670	      6.90206776	      3.04597016	    171.79419301	      0.44755454	      0.89806703	      0.74571831	     10.17975990	      2.10681702	      1.87595363	     50.06894562	      0.87386795	     21.50935366	     -5.47997199	     -7.49999987	     34.95044842	     -5.89405807	     -2.58346927	     21.66528960	      0.37813064	     -6.07941162	    -11.77805188	     -7.49999987	     -5.67317656	      4.76471080	     10.37849483	     24.11978794	    -21.39225669	     -1.16211138	     39.39598789	     76.48827709	      5.51628908	     -3.09703313	     -7.29156091	      8.51698734	     89.38234124
     44.68333330	      6.32710582	      2.39856237	    171.90776106	      0.44187301	      0.89607197	      0.75016822	     11.05771050	      0.40618923	      1.62637017	     54.69662022	      0.95463611	     19.11089367	     -5.25501929	     -7.49999987	     33.27004499	     -4.57028581	     -2.47147978	     22.24484407	      0.38824577	     -6.44386629	    -12.61008824	     -7.49999987	     -5.65374834	      4.29104193	      9.29711905	     23.09124175	    -20.40289168	     -2.13276164	     37.85859361	     79.22092148	      4.86421472	     -3.00216765	     -6.13664836	      9.26969287	     89.38283670
     44.70000000	      5.92777401	      1.76275337	    172.01528021	      0.43783082	      0.89293969	      0.75323063	     12.17688396	     -1.30142171	      1.53760216	     59.04843436	      1.03058960	     15.74831530	     -5.00783594	     -7.49999987	     31.68008883	     -3.33961684	     -2.56202989	     22.52361610	      0.39311126	     -6.35843163	    -12.68328896	     -7.49999987	     -5.69867494	      3.65761075	      8.49015790	     21.41568021	    -19.85577626	     -2.14374672	     36.97536301	     79.38016974	      4.82972319	     -2.87598267	     -6.03482796	      9.91452229	     89.24285037
     44.71666670	      5.75972617	      1.22513988	    172.09140946	      0.43492568	      0.88996923	      0.75528058	     13.66560376	     -2.76515284	      1.73262812	     63.11467679	      1.10155892	     11.79991155	     -4.99037928	     -7.49999987	     30.49197516	     -2.31823616	     -2.64796446	     22.83455387	      0.39853815	     -6.05153978	    -12.82685025	     -7.49999987	     -5.58468484	      3.03292179	      7.56849246	     19.87939198	    -19.17349110	     -2.53734711	     35.73149199	     79.53827202	      4.91368433	     -2.92747091	     -5.81774274	     10.75139851	     89.10194102
     44.73333330	      5.78701772	      0.93129528	    172.19721166	      0.43279558	      0.89017634	      0.75675958	     15.79960882	     -3.71694546	      2.12900600	     67.27046159	      1.17409104	      7.95954495	     -5.45209012	     -7.49999987	     29.62275187	     -1.64399743	     -2.80964916	     23.18809889	      0.40470867	     -5.31970021	    -12.83857947	     -7.49999987	     -5.39592601	      2.61596819	      6.64117975	     18.36693530	    -18.40506719	     -3.70672009	     34.04874647	     79.98864556	      5.36543273	     -3.02271039	     -5.21131926	     11.65833099	     89.13403348
     44.75000000	      5.48609766	      0.69636283	    172.34015790	      0.43052136	      0.89360104	      0.75815237	     17.96189144	     -4.41897729	      2.74595608	     71.20162455	      1.24270278	      4.66474309	     -6.15559698	     -7.49999987	     28.28594583	     -1.06073394	     -3.19612451	     23.36671310	      0.40782608	     -4.65299190	    -12.92386631	     -7.49999987	     -5.80267082	      2.11490773	      5.58657892	     16.73332066	    -17.74380071	     -4.16155108	     33.00190627	     80.15983008	      6.28917461	     -3.15713060	     -4.82187389	     12.44028511	     89.15072238
